<?xml version="1.0" encoding="utf-8"?>
<!-- Generator: Adobe Illustrator 18.0.0, SVG Export Plug-In . SVG Version: 6.00 Build 0)  -->
<!DOCTYPE svg PUBLIC "-//W3C//DTD SVG 1.1 Tiny//EN" "http://www.w3.org/Graphics/SVG/1.1/DTD/svg11-tiny.dtd">
<svg version="1.1" baseProfile="tiny" id="Layer_1" xmlns="http://www.w3.org/2000/svg" xmlns:xlink="http://www.w3.org/1999/xlink"
	 x="0px" y="0px" width="1700px" height="500px" viewBox="0 0 1700 500" xml:space="preserve">
<g>
	<polygon fill="#393A93" points="1583.7,329.7 1576.4,329.7 1576.4,348.8 1570,348.8 1570,329.7 1562.6,329.7 1562.6,324.2 
		1583.7,324.2 1583.7,329.7 	"/>
	<polygon fill="#393A93" points="1586.6,324.2 1596.1,324.2 1600.3,340.6 1600.4,340.6 1604.6,324.2 1614.1,324.2 1614.1,348.8 
		1608,348.8 1608,330.1 1608,330.1 1602.8,348.8 1597.9,348.8 1592.7,330.1 1592.6,330.1 1592.6,348.8 1586.6,348.8 1586.6,324.2 	
		"/>
</g>
<g>
	<g>
		<path fill="#393A93" d="M551.7,217.3v17.9h0.4c3.6-7.3,9.2-12.6,16.8-16c7.7-3.3,16.1-5,25.2-5c10.2,0,19.1,1.9,26.6,5.6
			c7.6,3.7,13.8,8.8,18.9,15.2c5,6.4,8.8,13.7,11.3,22.1c2.5,8.3,3.8,17.2,3.8,26.5c0,9.4-1.2,18.2-3.7,26.5
			c-2.5,8.3-6.2,15.6-11.2,21.8c-5,6.2-11.3,11.1-18.9,14.7c-7.6,3.6-16.4,5.4-26.4,5.4c-3.2,0-6.8-0.3-10.8-1
			c-4-0.7-7.9-1.8-11.9-3.3c-3.9-1.5-7.6-3.6-11.1-6.3c-3.5-2.6-6.4-5.9-8.8-9.8h-0.4v68.1h-21.9V217.3H551.7z M629.3,264.2
			c-1.6-5.9-4.1-11.1-7.4-15.7c-3.3-4.6-7.5-8.2-12.7-11c-5.2-2.7-11.2-4.1-18.2-4.1c-7.3,0-13.5,1.4-18.6,4.3
			c-5.1,2.9-9.2,6.7-12.5,11.3c-3.2,4.7-5.5,10-7,15.9c-1.4,6-2.2,12-2.2,18.1c0,6.5,0.8,12.7,2.3,18.7c1.5,6,3.9,11.3,7.2,15.9
			c3.3,4.6,7.6,8.3,12.8,11.1c5.3,2.8,11.6,4.2,19.1,4.2c7.5,0,13.7-1.4,18.7-4.3c5-2.9,9-6.7,12.1-11.5c3-4.8,5.3-10.2,6.6-16.3
			c1.4-6.1,2-12.4,2-18.9C631.7,276,630.9,270,629.3,264.2z"/>
		<path fill="#393A93" d="M766.4,340.7c-9.9,7.5-22.3,11.2-37.3,11.2c-10.6,0-19.7-1.7-27.5-5.1c-7.8-3.4-14.3-8.2-19.6-14.3
			c-5.3-6.1-9.2-13.4-11.9-21.9c-2.6-8.5-4.1-17.8-4.5-27.8c0-10,1.5-19.2,4.6-27.5c3.1-8.3,7.4-15.6,12.9-21.7
			c5.5-6.1,12.1-10.9,19.7-14.3c7.6-3.4,15.9-5.1,24.9-5.1c11.8,0,21.5,2.4,29.3,7.3c7.8,4.9,14,11,18.7,18.5
			c4.7,7.5,7.9,15.7,9.7,24.5c1.8,8.9,2.5,17.3,2.2,25.3h-98.8c-0.2,5.8,0.5,11.2,2,16.4c1.5,5.2,4,9.8,7.4,13.8
			c3.4,4,7.7,7.2,13,9.5c5.3,2.4,11.5,3.6,18.6,3.6c9.2,0,16.7-2.1,22.6-6.4c5.9-4.3,9.7-10.7,11.6-19.4h21.5
			C782.6,322.1,776.2,333.2,766.4,340.7z M761.1,256.1c-2-4.6-4.6-8.5-7.9-11.8c-3.3-3.3-7.2-5.9-11.7-7.9c-4.5-2-9.5-2.9-14.9-2.9
			c-5.6,0-10.7,1-15.2,2.9c-4.5,2-8.4,4.6-11.6,8c-3.2,3.4-5.8,7.3-7.6,11.8c-1.9,4.5-3,9.3-3.3,14.4h75.6
			C764.2,265.5,763,260.7,761.1,256.1z"/>
		<path fill="#393A93" d="M822.7,217.3v20.9h0.4c9.1-16,23.4-24,43.1-24c8.7,0,16,1.2,21.8,3.6c5.8,2.4,10.5,5.7,14.1,10
			c3.6,4.3,6.1,9.3,7.6,15.2c1.4,5.9,2.2,12.4,2.2,19.5v86.8H890V260c0-8.2-2.4-14.6-7.2-19.4c-4.8-4.8-11.3-7.1-19.7-7.1
			c-6.7,0-12.4,1-17.3,3.1c-4.9,2-8.9,4.9-12.2,8.7c-3.2,3.7-5.7,8.1-7.3,13.1c-1.6,5-2.4,10.5-2.4,16.5v74.5h-21.9v-132H822.7z"/>
	</g>
	<g>
		<g>
			<path fill="#393A93" d="M928.3,146.1h62.8l47.5,139.5h0.6l44.9-139.5h62.8V349h-41.8V205.2h-0.6L1054.8,349h-34.4l-49.7-142.4
				h-0.6V349h-41.8V146.1z"/>
			<path fill="#393A93" d="M1231.2,146.1h45.8l75.9,202.9h-46.3l-15.3-45.2h-75.9l-15.9,45.2h-45.2L1231.2,146.1z M1226.9,270.5
				h52.6l-25.6-74.5h-0.6L1226.9,270.5z"/>
			<path fill="#393A93" d="M1426.3,242.7l-65.4-96.6h51.7l39.8,64.8l41.2-64.8h48.9l-65.1,96.9l70.8,106h-53.1l-44.3-70.2
				l-45.2,70.2h-50.3L1426.3,242.7z"/>
		</g>
		<path fill="#393A93" d="M307,323.7c-70.4-2.6-166.3-35.8-186.2-83.7c-17.2-43.6-0.1-94.4,81.1-130.4C250,88.8,322.9,83,379,88.3
			c79.7,7.5,155.6,50.2,155.7,50.3v59.7l-0.1,4c0,0-24.7-23.2-55.6-41.8c-29.1-17.6-55.7-29.9-108.5-35c-12.4-1.2-33.4-4-67.5,0.9
			c-13.8,2-33.2,3.5-76.9,23.3c-14.2,7-27.2,14.5-37.3,23.1c-5.3,4.5-12.4,10.9-17.5,16.3c-12.5,16.2-19.1,28.3-15.9,50.2
			c3.7,16.5,10.8,26.9,31.2,42.7c8.9,6.9,9.9,6.8,13.9,8.9c36.7,19.6,66.1,26.9,108,32.3"/>
		<path fill="#393A93" d="M310.7,133.8c70.5-0.3,170.5,28.9,196.5,75.9c22.8,42.8,12.3,94.2-64.1,133.4
			c-45.4,22.7-117.3,31.5-174,28.4c-80.4-4.3-161.6-43.7-161.7-43.8l-7.7-59.6l-0.5-4c0,0,27.6,22.1,60.8,39.4
			c31.2,16.3,59.4,27.6,112.7,30.5c12.5,0.7,33.8,2.7,67.2-3.6c13.5-2.5,32.6-4.8,73.7-26.4c13.3-7.5,25.3-15.5,34.2-24.6
			c4.7-4.7,11-11.4,15.4-17c10.3-16.6,15.4-29,9.4-50.8c-5.8-16.3-14.2-26.4-36.6-41.3c-9.7-6.5-10.8-6.4-15-8.3
			C382,144,351.8,138,309.3,134.3"/>
	</g>
</g>
</svg>
