<?xml version="1.0" encoding="utf-8"?>
<!-- Generator: Adobe Illustrator 18.0.0, SVG Export Plug-In . SVG Version: 6.00 Build 0)  -->
<!DOCTYPE svg PUBLIC "-//W3C//DTD SVG 1.1 Tiny//EN" "http://www.w3.org/Graphics/SVG/1.1/DTD/svg11-tiny.dtd">
<svg version="1.1" baseProfile="tiny" id="EGL" xmlns="http://www.w3.org/2000/svg" xmlns:xlink="http://www.w3.org/1999/xlink"
	 x="0px" y="0px" width="1000px" height="500px" viewBox="0 0 1000 500" xml:space="preserve">
<g id="EGL_1_">
	<g>
		<path fill="#AE1116" d="M454.6,173.7H335.4V221h109.5v39.7H335.4v58.2h124.5v39.7H289.4V134h165.2L454.6,173.7L454.6,173.7z"/>
		<path fill="#AE1116" d="M586.3,237.6h93.9v121.1h-31.3l-4.7-28.2c-11.9,13.8-29.1,34.1-70.1,34.1c-54.1,0-103.3-38.8-103.3-117.6
			c0-61,33.8-118.9,109.2-118.9h0.6c68.8,0,96,44.7,98.6,75.7h-46.9c0-8.8-16-36.9-49.1-36.9c-33.5,0-64.5,23.1-64.5,80.7
			c0,61.3,33.5,77.3,65.4,77.3c10.3,0,44.7-4.1,54.4-49.4h-52.3L586.3,237.6L586.3,237.6z"/>
		<path fill="#AE1116" d="M754,318h111.7v40.7H707V134H754V318z"/>
	</g>
	<path fill="#AE1116" d="M748.2,375.3c-48.3,27.4-165.6,65-304.1,46.1C270.6,397.8,197.5,337,197.5,249.6S284.1,95.7,444,78.6
		c132.4-14.2,250.3,16.8,300.5,42.6h1.5C713.3,95,610.8,25.9,440.6,25C230.7,23.9,64.2,136.4,65.2,250
		c-1,113.6,165.5,226.1,375.4,225c178.5-0.9,282.6-77,309.7-99.7H748.2z"/>
</g>
<g id="TM_2_">
	<path fill="#AE1116" d="M904.8,339.7h-7.3v18.9h-6.3v-18.9h-7.3v-5.5h20.9L904.8,339.7L904.8,339.7z"/>
	<path fill="#AE1116" d="M907.6,334.3h9.3l4.2,16.2h0.1l4.2-16.2h9.3v24.4h-6v-18.5h-0.1l-5.1,18.5h-4.8l-5.1-18.5h-0.1v18.5h-6
		L907.6,334.3L907.6,334.3z"/>
</g>
</svg>
