<?xml version="1.0" encoding="UTF-8"?><svg xmlns="http://www.w3.org/2000/svg" xmlns:xlink="http://www.w3.org/1999/xlink" viewBox="0 0 66.06 48.33"><defs><style>.x{clip-path:url(#l);}.y{clip-path:url(#h);}.a`{fill:url(#u);}.aa{fill:url(#m);}.ab{clip-path:url(#n);}.ac{fill:url(#g);}.ad{fill:url(#i);}.ae{clip-path:url(#t);}.af{clip-path:url(#d);}.ag{clip-path:url(#v);}.ah{clip-rule:evenodd;fill:none;}.ai{fill:url(#e);}.aj{clip-path:url(#p);}.ak{fill:url(#s);}.al{clip-path:url(#f);}.am{clip-path:url(#j);}.an{fill:url(#w);}.ao{fill:url(#o);}.ap{fill:url(#q);}.aq{clip-path:url(#r);}.ar{fill:url(#k);}</style><clipPath id="d"><path class="ah" d="M28.44,14.26c.78-.55,1.59-.84,2.14-1.12,.94-.47,14.55-6.94,15.08-7.22,2.17-1.19,1.87-.72,7.26,2.57,.84,.51,4.1,2.31,4.44,2.77,.67,.91,.94,4.44,1.2,5.98,.7,4.15,1.4,8.2,2.05,12.37,.51,3.22,2.26,9.44,.84,12.11-2.63,4.98-7.02,1.13-9.04-.47-1.62-1.28-3.62-3.07-5.6-4.84-.79,1.07-1.93,1.86-3.25,2.21,3.82,3.33,8.29,7.21,9.36,7.88,6.14,4.51,14.21,.15,12.99-8.33l-4.2-24.66c-.8-4.48,0-4.01-3.37-6.16l-2.3-1.38-2.3-1.38-2.3-1.38-2.3-1.38c-.38-.24-.69-.41-.95-.54-.27-.12-.5-.18-.73-.19-.24,0-.48,.04-.77,.13-.29,.1-.63,.24-1.07,.43-.4,.18-14.14,6.66-15.16,7.18-1.01,.52-2.25,1.14-3.5,1.79-4.53,2.38-1.91,5.97,1.45,3.57M.22,38.2c-1.9,9.89,8.67,13.04,16.22,5.79l6.97-5.9c-1.11-.62-1.99-1.59-2.51-2.76l-8.3,6.85c-4.28,3.46-7.71,1.84-8.46-1.9-.35-1.76,3.17-21.42,3.76-24.73,.46-2.59,.16-3.92,2.12-5.06,2.65-1.55,4.48-2.7,5.83-3.51,1.35-.81,2.21-1.28,2.94-1.45,.72-.17,1.3-.05,2.07,.31,.77,.37,1.74,.98,3.24,1.79,.63,.34,1.72,.98,2.35,1.03,1,.32,9.46-4.6,11.01-5.37,.85-.43,1.2-1.46,.78-2.32-.43-.85-1.46-1.2-2.32-.78l-9.21,4.59c-.12-.09-.25-.17-.38-.24-1.3-.68-2.57-1.4-3.69-1.98-1.11-.58-2.05-1.04-2.62-1.24-1.62-.58-4.72,1.77-6.19,2.59C4.13,9.3,5.39,8.02,4.38,13.77c-.48,2.75-.93,5.35-1.39,8.12L.22,38.2Z"/></clipPath><linearGradient id="e" x1="24.59" y1="17.13" x2="41.01" y2="33.99" gradientTransform="matrix(1, 0, 0, 1, 0, 0)" gradientUnits="userSpaceOnUse"><stop offset="0" stop-color="#f63"/><stop offset="1" stop-color="#66f"/></linearGradient><clipPath id="f"><path class="ah" d="M51.15,17.57c-2.67,1.23-.97,5.41,1.9,4.25,2.77-1.12,1.17-5.67-1.9-4.25"/></clipPath><linearGradient id="g" x1="51.5" y1="18.8" x2="53.15" y2="20.73" xlink:href="#e"/><clipPath id="h"><path class="ah" d="M41.61,17.56c-2.72,1.18-.85,5.43,1.91,4.25,2.73-1.17,1.18-5.59-1.91-4.25"/></clipPath><linearGradient id="i" x1="41.93" y1="18.84" x2="43.57" y2="20.77" xlink:href="#e"/><clipPath id="j"><path class="ah" d="M46.69,12.71c-3.31,1.24-1.04,5.63,1.79,4.25,2.31-1.13,1.09-5.32-1.79-4.25"/></clipPath><linearGradient id="k" x1="46.47" y1="14.26" x2="48.11" y2="16.18" xlink:href="#e"/><clipPath id="l"><path class="ah" d="M46.77,22.26c-3.52,1.3-1.1,5.62,1.71,4.23,2.34-1.16,1-5.23-1.71-4.23"/></clipPath><linearGradient id="m" x1="46.42" y1="23.83" x2="48.04" y2="25.76" xlink:href="#e"/><clipPath id="n"><path class="ah" d="M13.95,17.72h2.92v-2.92c0-.95,.78-1.73,1.73-1.73h.37c.95,0,1.73,.78,1.73,1.73v2.92h2.92c.95,0,1.73,.78,1.73,1.73v.37c0,.95-.78,1.73-1.73,1.73h-2.92v2.92c0,.95-.78,1.73-1.73,1.73h-.37c-.95,0-1.73-.78-1.73-1.73v-2.92h-2.92c-.95,0-1.73-.78-1.73-1.73v-.37c0-.95,.78-1.73,1.73-1.73"/></clipPath><linearGradient id="o" x1="16.86" y1="17.36" x2="21.43" y2="22.79" xlink:href="#e"/><clipPath id="p"><path class="ah" d="M42.09,27.55c2.98,0,5.39,2.41,5.39,5.39s-2.41,5.39-5.39,5.39-5.39-2.41-5.39-5.39,2.41-5.39,5.39-5.39m0-.5c3.25,0,5.89,2.64,5.89,5.89s-2.64,5.89-5.89,5.89-5.89-2.64-5.89-5.89,2.64-5.89,5.89-5.89Z"/></clipPath><linearGradient id="q" x1="37.79" y1="27.19" x2="46.95" y2="39.46" xlink:href="#e"/><clipPath id="r"><path class="ah" d="M42.09,28.8c2.29,0,4.14,1.85,4.14,4.14s-1.85,4.14-4.14,4.14-4.14-1.85-4.14-4.14,1.85-4.14,4.14-4.14"/></clipPath><linearGradient id="s" x1="40.88" y1="31.5" x2="43.76" y2="34.93" xlink:href="#e"/><clipPath id="t"><path class="ah" d="M26.3,27.55c2.98,0,5.39,2.41,5.39,5.39s-2.41,5.39-5.39,5.39-5.39-2.41-5.39-5.39,2.41-5.39,5.39-5.39m0-.5c3.25,0,5.89,2.64,5.89,5.89s-2.64,5.89-5.89,5.89-5.89-2.64-5.89-5.89,2.64-5.89,5.89-5.89Z"/></clipPath><linearGradient id="u" x1="22" y1="27.19" x2="31.16" y2="39.46" xlink:href="#e"/><clipPath id="v"><path class="ah" d="M26.3,28.8c2.29,0,4.14,1.85,4.14,4.14s-1.85,4.14-4.14,4.14-4.14-1.85-4.14-4.14,1.85-4.14,4.14-4.14"/></clipPath><linearGradient id="w" x1="25.09" y1="31.5" x2="27.97" y2="34.93" xlink:href="#e"/></defs><g id="a"/><g id="b"><g id="c"><g><g class="af"><rect class="ai" x="-1.68" y="-.24" width="68.83" height="51.48"/></g><g class="al"><rect class="ac" x="48.48" y="16.14" width="7.33" height="6.83"/></g><g class="y"><rect class="ad" x="38.89" y="16.21" width="7.36" height="6.77"/></g><g class="am"><rect class="ar" x="43.38" y="11.63" width="7.41" height="6.71"/></g><g class="x"><rect class="aa" x="43.25" y="21.26" width="7.57" height="6.62"/></g><g class="ab"><rect class="ao" x="12.22" y="13.08" width="13.12" height="13.12"/></g><g class="aj"><rect class="ap" x="36.2" y="27.06" width="11.77" height="11.77"/></g><g class="aq"><rect class="ak" x="37.94" y="28.8" width="8.28" height="8.28"/></g><g class="ae"><rect class="a`" x="20.41" y="27.06" width="11.77" height="11.77"/></g><g class="ag"><rect class="an" x="22.15" y="28.8" width="8.28" height="8.28"/></g></g></g></g></svg>