<?xml version="1.0" encoding="UTF-8"?><svg xmlns="http://www.w3.org/2000/svg" viewBox="0 0 67.69 67.69"><defs><style>.d{fill:#fff;}.d,.e{fill-rule:evenodd;}.e{fill:#fe6521;}</style></defs><g id="a"/><g id="b"><g id="c"><g><path class="e" d="M33.84,0c18.69,0,33.84,15.15,33.84,33.84s-15.15,33.84-33.84,33.84S0,52.54,0,33.84,15.15,0,33.84,0"/><g><path class="d" d="M30.97,27.64c.49-.35,1-.53,1.34-.7,.59-.29,9.12-4.34,9.45-4.52,1.36-.74,1.17-.45,4.55,1.61,.52,.32,2.57,1.45,2.78,1.74,.42,.57,.59,2.78,.75,3.75,.44,2.6,.87,5.14,1.29,7.75,.32,2.02,1.41,5.91,.53,7.59-1.65,3.12-4.39,.71-5.66-.29-1.01-.8-2.26-1.92-3.51-3.03-.49,.67-1.21,1.17-2.04,1.38,2.4,2.09,5.19,4.51,5.86,4.94,3.85,2.83,8.9,.1,8.14-5.21l-2.63-15.44c-.5-2.81,0-2.51-2.11-3.86l-1.44-.86-1.44-.86-1.44-.86-1.44-.86c-.24-.15-.43-.26-.6-.34-.17-.08-.31-.12-.46-.12-.15,0-.3,.02-.48,.08-.18,.06-.4,.15-.67,.27-.25,.11-8.86,4.17-9.49,4.5-.64,.33-1.41,.71-2.19,1.12-2.84,1.49-1.2,3.74,.91,2.24m-17.67,14.99c-1.19,6.2,5.43,8.16,10.16,3.62l4.37-3.7c-.69-.39-1.25-1-1.57-1.73l-5.2,4.29c-2.68,2.17-4.83,1.15-5.3-1.19-.22-1.1,1.99-13.42,2.35-15.49,.29-1.62,.1-2.46,1.33-3.17,1.66-.97,2.81-1.69,3.65-2.2,.84-.51,1.39-.8,1.84-.91,.45-.11,.81-.03,1.3,.2,.48,.23,1.09,.61,2.03,1.12,.4,.22,1.08,.61,1.47,.65,.63,.2,5.93-2.88,6.9-3.37,.53-.27,.75-.92,.49-1.45-.27-.54-.92-.75-1.45-.49l-5.77,2.88c-.07-.05-.15-.1-.24-.15-.81-.42-1.61-.88-2.31-1.24-.7-.36-1.28-.65-1.64-.78-1.01-.36-2.96,1.11-3.88,1.62-6.08,3.38-5.29,2.58-5.92,6.18-.3,1.72-.58,3.35-.87,5.08l-1.73,10.22Z"/><path class="d" d="M45.19,29.71c-1.67,.77-.61,3.39,1.19,2.66,1.73-.7,.73-3.55-1.19-2.66"/><path class="d" d="M39.22,29.7c-1.7,.74-.53,3.4,1.2,2.66,1.71-.73,.74-3.5-1.2-2.66"/><path class="d" d="M42.4,26.67c-2.07,.78-.65,3.53,1.12,2.66,1.45-.71,.68-3.33-1.12-2.66"/><path class="d" d="M42.45,32.65c-2.2,.81-.69,3.52,1.07,2.65,1.47-.73,.63-3.28-1.07-2.65"/><path class="d" d="M21.89,29.81h1.83v-1.83c0-.6,.49-1.08,1.08-1.08h.23c.6,0,1.08,.49,1.08,1.08v1.83h1.83c.6,0,1.08,.49,1.08,1.08v.23c0,.6-.49,1.08-1.08,1.08h-1.83v1.83c0,.6-.49,1.08-1.08,1.08h-.23c-.6,0-1.08-.49-1.08-1.08v-1.83h-1.83c-.6,0-1.08-.49-1.08-1.08v-.23c0-.6,.49-1.08,1.08-1.08"/><path class="d" d="M39.52,35.97c1.86,0,3.37,1.51,3.37,3.37s-1.51,3.37-3.37,3.37-3.37-1.51-3.37-3.37,1.51-3.37,3.37-3.37m0-.31c2.04,0,3.69,1.65,3.69,3.69s-1.65,3.69-3.69,3.69-3.69-1.65-3.69-3.69,1.65-3.69,3.69-3.69Z"/><path class="d" d="M39.52,36.75c1.43,0,2.59,1.16,2.59,2.59s-1.16,2.59-2.59,2.59-2.59-1.16-2.59-2.59,1.16-2.59,2.59-2.59"/><path class="d" d="M29.63,35.97c1.86,0,3.37,1.51,3.37,3.37s-1.51,3.37-3.37,3.37-3.37-1.51-3.37-3.37,1.51-3.37,3.37-3.37m0-.31c2.04,0,3.69,1.65,3.69,3.69s-1.65,3.69-3.69,3.69-3.69-1.65-3.69-3.69,1.65-3.69,3.69-3.69Z"/><path class="d" d="M29.63,36.75c1.43,0,2.59,1.16,2.59,2.59s-1.16,2.59-2.59,2.59-2.59-1.16-2.59-2.59,1.16-2.59,2.59-2.59"/></g></g></g></g></svg>